# xmcd
#
# Track frame offsets: 
#        150
#        14012
#        25502
#        38360
#        50442
#        63557
#        77075
#        89242
#        103302
#        114880
#        127345
#        139465
#        152285
#        162290
#        173762
#        187270
#        200882
#        213125
#        223012
#        234882
#        245160
#        255892
#        267110
#        280392
#        292237
#
# Disc length: 4090 seconds
#
# Revision: 0
# Processed by: cddbd v1.5.2PL0 Copyright (c) Steve Scherf et al.
# Submitted via: ExactAudioCopy v0.95a5
#
DISCID=780ff819
DTITLE=Various Artist - Dealing with the Devil-25 Essential Blues Mas
DTITLE=ters
DYEAR=2004
DGENRE=Blues
TTITLE0=Tomorrow Night-Lonnie Johnson
TTITLE1=All She Wants to Do Is Rock-Wynonie Harris
TTITLE2=Landlord Blues-Ivory Joe Hunter
TTITLE3=Somebody Done Stole My Cherry Red- Eddie "Cleanhead" Vinson
TTITLE4=Devil's Jump-Texas Slim
TTITLE5=Hard Luck Blues-Roy Brown
TTITLE6=Well, Oh Well-Tiny Bradshaw
TTITLE7=Real Good Feeling-Big Tom Collins
TTITLE8=Gone So Long-Roy "Baldhead" Byrd
TTITLE9=Aged and Mellow Blues-Little Esther
TTITLE10=K.C. Lovin'-Little Willie Littlefield
TTITLE11=I'll Drown in My Tears-Sonny Thompson, Lula Reed
TTITLE12=Big Ten-Inch Record-Jackson, Bull Moose
TTITLE13=Fast Woman, Slow Gin-Jimmy Witherspoon
TTITLE14=This Woman of Mine-Wilbert Harrison
TTITLE15=Dealing With the Devil-Eddie "Guitar" Burns
TTITLE16=Don't Take It So Hard-Earl "Connelly" King
TTITLE17=Let the Doorbell Ring-Champion Jack Dupree
TTITLE18=Another Woman's Man-Joe Tex
TTITLE19=Need Your Love So Bad-Little Willie John
TTITLE20=I'm Tore Up-Billy Gayles, Ike Turner Rhythm Rockers
TTITLE21=Look at Little Sister-Hank Ballard and The Midnighters
TTITLE22=Don't Throw Your Love On Me So Strong-Albert King
TTITLE23=I'm Tore Down-Freddy King
TTITLE24=Cuttin' In-Johnny Watson
EXTD=
EXTT0=
EXTT1=
EXTT2=
EXTT3=
EXTT4=
EXTT5=
EXTT6=
EXTT7=
EXTT8=
EXTT9=
EXTT10=
EXTT11=
EXTT12=
EXTT13=
EXTT14=
EXTT15=
EXTT16=
EXTT17=
EXTT18=
EXTT19=
EXTT20=
EXTT21=
EXTT22=
EXTT23=
EXTT24=
PLAYORDER=
